PLOT

A troubled man, recently discharged from the Navy, goes to Corpus Christi, Texas, in
search of the father he's never met.
 
http://www.imdb.com/title/tt0396688/


Encoded By .......: BigPerm1828
Runtime ..........: 1h 43mn
File Size ........: 735 MiB
Resolution .......: 720 x 368
IMDb URL .........: http://www.imdb.com/title/tt0396688/
Genre ............: Drama
Language .........: English
Subtitles ........: None
General
Complete name : The King 2005 DVDRip BigPerm LKRG\The King 2005 DVDRip BigPerm LKRG.m4v
Format : MPEG-4
Format profile : Base Media / Version 2
Codec ID : mp42
File size : 735 MiB
Duration : 1h 43mn
Overall bit rate : 994 Kbps ▓█
Video
ID : 1
Format : AVC
Format/Info : Advanced Video Codec
Format profile : Main@L3.0
Format settings, CABAC : Yes
Format settings, ReFrames : 2 frames
Codec ID : avc1
Codec ID/Info : Advanced Video Coding
Duration : 1h 43mn
Bit rate mode : Variable
Bit rate : 829 Kbps
Width : 720 pixels
Height : 368 pixels
Display aspect ratio : 2.35:1
Original display aspect ratio : 2.35:1
Frame rate mode : Variable
Frame rate : 24.103 fps
Original frame rate : 23.976 fps
Minimum frame rate : 9.990 fps
Maximum frame rate : 29.970 fps
Color space : YUV
Chroma subsampling : 4:2:0
Bit depth : 8 bits
Scan type : Progressive
Bits/(Pixel*Frame) : 0.130
Stream size : 613 MiB (83%)
Writing library : x264 core 79
Audio
ID : 2
Format : AAC
Format/Info : Advanced Audio Codec
Format version : Version 4
Format profile : LC
Codec ID : 40
Duration : 1h 43mn
Bit rate mode : Variable
Bit rate : 160 Kbps
Maximum bit rate : 247 Kbps
Channel(s) : 2 channels
Channel positions : Front: L R
Sampling rate : 48.0 KHz
Compression mode : Lossy
Stream size : 118 MiB (16%)
Language : English

